<?xml version="1.0" encoding="UTF-8" standalone="no"?>
<!-- Created with Inkscape (http://www.inkscape.org/) -->

<svg
   width="119.96504mm"
   height="39.513672mm"
   viewBox="0 0 119.96504 39.513672"
   version="1.1"
   id="svg5"
   inkscape:version="1.1.1 (3bf5ae0d25, 2021-09-20)"
   sodipodi:docname="chattiez-logo.svg"
   xmlns:inkscape="http://www.inkscape.org/namespaces/inkscape"
   xmlns:sodipodi="http://sodipodi.sourceforge.net/DTD/sodipodi-0.dtd"
   xmlns="http://www.w3.org/2000/svg"
   xmlns:svg="http://www.w3.org/2000/svg">
  <sodipodi:namedview
     id="namedview7"
     pagecolor="#ffffff"
     bordercolor="#999999"
     borderopacity="1"
     inkscape:pageshadow="0"
     inkscape:pageopacity="0"
     inkscape:pagecheckerboard="0"
     inkscape:document-units="mm"
     showgrid="false"
     inkscape:zoom="0.70710678"
     inkscape:cx="-80.610173"
     inkscape:cy="219.91021"
     inkscape:window-width="1920"
     inkscape:window-height="1017"
     inkscape:window-x="1912"
     inkscape:window-y="-8"
     inkscape:window-maximized="1"
     inkscape:current-layer="layer1"
     inkscape:snap-midpoints="true"
     inkscape:snap-smooth-nodes="true"
     fit-margin-top="0"
     fit-margin-left="0"
     fit-margin-right="0"
     fit-margin-bottom="0" />
  <defs
     id="defs2">
    <rect
       x="63.411568"
       y="238.80527"
       width="682.68628"
       height="400.70715"
       id="rect2366" />
    <rect
       x="63.411568"
       y="238.80527"
       width="682.68628"
       height="400.70715"
       id="rect9020" />
    <clipPath
       clipPathUnits="userSpaceOnUse"
       id="clipPath23085">
      <g
         inkscape:label="Clip"
         id="use23087">
        <path
           style="font-variation-settings:'wght' 700;fill:#ff595e;fill-opacity:1;fill-rule:evenodd;stroke:none;stroke-width:1;stroke-linecap:butt;stroke-linejoin:round;stroke-miterlimit:4;stroke-dasharray:none;stroke-opacity:1;paint-order:fill markers stroke"
           id="path24518"
           d="m 72.296128,-15.233804 c -2.044243,-1.037483 -4.338233,-1.208158 -6.583776,-1.389431 -4.535471,-0.248805 -9.081772,-0.247011 -13.621027,-0.124288 -3.673634,0.193123 -7.395917,0.41015 -10.971623,1.344887 -0.523086,0.136741 -1.034584,0.314494 -1.551876,0.471741 -7.009782,3.799657 -13.046981,6.1452754 -14.46892,13.8174555 -0.436147,2.78532 -0.640312,5.599882 -0.786876,8.413168 -0.07612,0.641929 -0.199878,1.287166 -0.49819,1.868401 -0.399213,0.777834 -1.021201,1.4385565 -1.570326,2.1086855 -1.261365,1.508071 -2.48688,3.050052 -3.567862,4.694459 -0.766733,1.166365 -0.980246,1.588375 -1.664461,2.794843 -0.232851,0.462267 -0.490405,0.912898 -0.698553,1.386801 -0.78648,1.790628 -1.375905,4.075292 -1.474612,6.031177 -0.02794,0.553558 0.01543,1.108416 0.02315,1.662626 0.08631,0.587168 0.128563,1.182523 0.258928,1.761505 0.568537,2.525006 1.911627,5.255827 3.59311,7.222543 0.473785,0.554154 1.027814,1.034328 1.541721,1.551493 0.666055,0.454943 1.298837,0.962906 1.998165,1.364832 2.51667,1.446408 5.383999,2.286781 8.250428,2.665158 2.774005,0.366181 4.717449,0.28238 7.530668,0.296858 5.546058,-0.147873 11.086647,-0.670362 16.639042,-0.454634 3.044274,0.118279 3.27371,0.224036 6.145617,0.642472 3.044756,0.559845 5.822013,1.951569 8.664136,3.109129 1.998199,0.813845 1.872636,0.741635 3.892026,1.447663 2.621132,0.91409 5.365898,1.295675 8.105341,1.643073 3.083967,0.391088 1.419286,0.168264 4.596778,0.614653 3.176325,0.463238 6.36066,0.922563 9.569564,1.087885 1.929796,0.09942 2.689481,0.06857 4.63183,0.0601 2.42829,-0.09034 4.85803,-0.247198 7.26272,-0.610074 1.04627,-0.157887 2.13339,-0.343966 3.12969,-0.725712 0.35531,-0.136141 0.68112,-0.339394 1.02168,-0.509093 1.28246,-0.851881 2.66051,-1.574964 3.84738,-2.555644 0.34655,-0.286348 0.9187,-2.144813 0.99893,-2.441372 0.25868,-0.956225 0.62471,-2.855703 0.69394,-3.792839 0.0614,-0.831561 0.0188,-1.667549 0.0282,-2.501323 -0.087,-0.947909 -0.13141,-1.900703 -0.26104,-2.843728 -0.25936,-1.886678 -0.84149,-4.483762 -1.26656,-6.32808 -0.67187,-2.915205 -1.39519,-5.815388 -2.03856,-8.737372 -0.28685,-1.752864 -0.7563,-3.515037 -0.76554,-5.305314 -0.003,-0.564221 0.0642,-1.225904 0.34516,-1.738164 0.11215,-0.204462 0.29531,-0.360998 0.44297,-0.541499 0.77886,-0.672482 1.75362,-1.098968 2.32228,-1.995667 0.48006,-0.7569915 0.42197,-0.9584045 0.60315,-1.8757695 -0.0775,-2.929795 -0.89683,-5.780611 -2.15639,-8.41588797 -0.27781,-0.581238 -0.59929,-1.14057603 -0.89893,-1.71086403 -1.10636,-1.964634 -2.41877,-3.8180083 -4.00368,-5.4266538 -0.83053,-0.8429622 -1.15307,-1.0837264 -2.04621,-1.8427604 -1.29126,-1.0308383 -2.65347,-2.0205243 -4.19776,-2.6409923 -1.05663,-0.424535 -1.35833,-0.435578 -2.49219,-0.677421 -2.502519,-0.310987 -5.033256,-0.243372 -7.546626,-0.133524 -0.688882,0.03011 -1.379275,0.04538 -2.065583,0.112076 -0.756838,0.07356 -1.506852,0.20556 -2.26028,0.308339 -4.19069,0.716069 -8.105809,2.3983744 -11.980479,4.0793969 -1.246584,0.5161076 -2.482474,1.0828438 -3.776696,1.4752807 -0.57068,0.1730425 -1.150044,0.3130695 -1.751227,0.3099548 -0.272082,-0.0014 -0.540994,-0.058727 -0.811491,-0.08809 C 69.35,-6.5559409 68.265328,-7.3206174 67.147616,-7.9935701 66.342085,-8.4785667 65.52675,-8.9471056 64.718374,-9.4273469 62.981276,-10.416044 61.247683,-11.420974 59.415179,-12.22638 c -1.122275,-0.493252 -2.057794,-0.832992 -3.202384,-1.268756 -2.280928,-0.839458 -4.662054,-1.468718 -7.110862,-1.427389 -0.469652,0.0079 -0.937459,0.06094 -1.406187,0.09141 -2.864723,0.295638 -5.343466,1.805953 -7.85714,3.083829 -2.308807,1.179395 -4.891505,1.57449 -7.393395,2.143615 -0.81154,-0.2234623 -5.422983,2.1671301 -1.288193,1.7793078 2.00099,-0.4230113 4.052369,-0.6973964 5.882474,-1.6802914 2.509907,-1.2833364 4.958003,-2.8608124 7.810392,-3.2269494 1.226185,-0.09964 1.507228,-0.164897 2.733333,-0.09723 1.98196,0.109383 3.912246,0.606016 5.782323,1.248861 0.532228,0.20037 1.069587,0.387607 1.596684,0.60111 2.361973,0.956728 4.597858,2.1836867 6.79487,3.4672836 1.397813,0.8491267 1.006147,0.5923973 2.341894,1.476357 1.113385,0.7368087 2.203227,1.543159 3.517572,1.8855099 0.288369,0.04919 0.57301,0.131577 0.865108,0.147582 1.050417,0.05756 2.064416,-0.332296 3.025571,-0.6975039 1.079458,-0.4101613 1.737757,-0.7097053 2.816439,-1.1752386 3.888603,-1.743179 7.822674,-3.4928471 12.045453,-4.247623 0.731808,-0.0976 1.460481,-0.222622 2.195427,-0.292789 0.682874,-0.0652 1.369521,-0.08269 2.054829,-0.112997 2.433833,-0.107631 4.887997,-0.14996 7.305376,0.202734 1.05419,0.224814 1.41864,0.2582 2.412027,0.636996 1.53521,0.5854025 2.89599,1.5375183 4.18813,2.5335449 0.87277,0.717595 1.24393,0.9953784 2.06633,1.7842471 1.61236,1.5466035 2.97984,3.3240655 4.07741,5.27070253 0.29297,0.564066 0.60824,1.11709897 0.87891,1.69219697 1.00624,2.137948 1.78209,4.502256 1.87622,6.881848 0.0192,0.484576 -0.0405,0.969061 -0.0608,1.453592 -0.27142,0.8667625 -0.24237,1.0698635 -0.76812,1.7583225 -0.6396,0.837555 -1.65987,1.235195 -2.32468,2.046624 -0.12344,0.215501 -0.28472,0.413367 -0.37032,0.646499 -0.20451,0.557041 -0.1839,1.210128 -0.11762,1.782562 0.20214,1.745554 0.7965,3.423369 1.17489,5.130498 0.75851,2.871689 1.55816,5.736968 2.21229,8.634941 0.47306,2.095754 0.91055,4.214411 1.12343,6.356194 0.0946,0.951831 0.0951,1.910678 0.14261,2.866017 -0.0562,0.840915 -0.0627,1.686621 -0.16846,2.522744 -0.13684,1.081707 -0.55561,2.769592 -0.91832,3.83104 -0.15715,0.459904 -0.33434,0.915082 -0.55333,1.348967 -0.17741,0.35151 -1.02442,1.021363 -0.63135,0.998342 0.85944,-0.05034 1.55838,-0.732182 2.33757,-1.098272 -0.35298,0.206925 -0.68627,0.451889 -1.05895,0.620778 -1.02794,0.465823 -2.19417,0.721755 -3.29208,0.924624 -2.39622,0.442772 -4.83048,0.632378 -7.26504,0.666403 -1.93628,0.0063 -2.68026,0.03083 -4.607353,-0.05024 -3.212556,-0.135145 -6.404847,-0.528507 -9.575912,-1.051054 -0.777711,-0.121253 -1.554226,-0.250441 -2.333133,-0.363757 -3.438353,-0.50021 -6.932549,-0.785764 -10.246598,-1.905486 -1.822127,-0.615707 -2.118119,-0.690767 -3.922268,-1.402377 -2.920987,-1.152123 -5.757953,-2.604682 -8.906917,-3.043568 -3.010197,-0.343569 -3.238008,-0.436896 -6.409214,-0.498067 -5.5587,-0.107231 -11.099112,0.441176 -16.655105,0.469021 -2.90336,-0.0525 -4.453364,0.01812 -7.292931,-0.400627 -2.787256,-0.41103 -5.545636,-1.244838 -7.976076,-2.696128 -0.668827,-0.399378 -1.270312,-0.902017 -1.905468,-1.353026 -0.49948,-0.506269 -1.038726,-0.976172 -1.498441,-1.518806 -1.67054,-1.971855 -2.92242,-4.593892 -3.41509,-7.131137 -0.111255,-0.572961 -0.136063,-1.15937 -0.204094,-1.739054 0.0078,-0.54579 -0.01566,-1.092914 0.02325,-1.637371 0.182802,-2.557854 1.009393,-5.044678 2.220335,-7.289712 0.712662,-1.251138 0.854411,-1.553396 1.666779,-2.760057 1.12893,-1.676874 2.420738,-3.235311 3.760207,-4.7464445 1.141943,-1.369872 2.020599,-2.36033 2.020897,-4.229253 -0.05848,-2.741767 0.04261,-5.49255997 0.503774,-8.201179 0.367174,-1.725394 0.697668,-3.4618049 1.655452,-4.9823902 0.695148,-1.1036217 1.787377,-1.8585301 2.792407,-2.6459423 0.918126,-0.662224 1.355834,-0.990753 2.301877,-1.620964 0.39757,-0.264842 1.648218,-0.953274 1.204264,-0.7769 -0.659345,0.261946 -1.255577,0.663382 -1.858755,1.036917 -0.819859,0.507721 3.514429,-1.972795 2.612462,-1.242821 0.531252,-0.178974 1.055487,-0.380317 1.593758,-0.536921 3.601504,-1.047823 7.376193,-1.325536 11.102272,-1.526931 4.456909,-0.118449 8.921112,-0.07311 13.369176,0.257608 2.080988,0.216886 4.31405,0.354974 6.119678,1.524752 l 3.271385,-2.135759 z"
           sodipodi:nodetypes="sccscccscscsscsscsscscscscscsscssccssccscscscscscssccsscscsccccccccscscscssccsscscscsccscsccsscsssscsscscscscscsscsscscscccscssscsccccs" />
      </g>
    </clipPath>
  </defs>
  <g
     inkscape:label="Warstwa 1"
     inkscape:groupmode="layer"
     id="layer1"
     transform="translate(-20.387185,-46.563155)">
    <g
       id="g24684"
       inkscape:export-filename="C:\Users\ketris\Desktop\g24684.png"
       inkscape:export-xdpi="235.368"
       inkscape:export-ydpi="235.368"
       transform="translate(12.72203,-15.715448)">
      <rect
         style="font-variation-settings:'wght' 700;fill:#ff595e;fill-opacity:1;fill-rule:evenodd;stroke:none;stroke-width:0.934793;stroke-linecap:butt;stroke-linejoin:round;stroke-miterlimit:4;stroke-dasharray:none;stroke-opacity:1;paint-order:fill markers stroke"
         id="rect8830"
         width="119.96504"
         height="39.513672"
         x="7.6651549"
         y="62.278603" />
      <path
         id="rect15873"
         style="font-variation-settings:'wght' 700;fill:#ffffff;fill-opacity:1;fill-rule:evenodd;stroke:#ffffff;stroke-width:0.6;stroke-linecap:square;stroke-linejoin:miter;stroke-miterlimit:4;stroke-dasharray:none;stroke-opacity:1;paint-order:markers fill stroke"
         d="m 24.719825,72.057124 c -2.201333,0 -3.945305,0.618017 -5.232239,1.85415 -1.286933,1.2192 -1.930631,2.971559 -1.930631,5.257559 v 4.267441 c 0,2.286 0.643698,4.047265 1.930631,5.283398 1.286934,1.219204 3.030906,1.828834 5.232239,1.828834 2.184401,0 3.869138,-0.59286 5.054471,-1.77819 1.202267,-1.202266 1.803509,-2.845064 1.803509,-4.927864 v -0.355534 h -3.301609 v 0.457335 c 0,1.032933 -0.296685,1.89679 -0.889352,2.591056 -0.57573,0.677334 -1.464751,1.015961 -2.667019,1.015961 -1.185333,0 -2.116295,-0.364308 -2.793628,-1.092441 -0.677333,-0.745067 -1.016475,-1.735778 -1.016475,-2.971911 v -4.368726 c 0,-1.253067 0.339142,-2.243778 1.016475,-2.971911 0.677333,-0.728133 1.608295,-1.091925 2.793628,-1.091925 1.202268,0 2.091289,0.338627 2.667019,1.01596 0.592667,0.677334 0.889352,1.540672 0.889352,2.590538 v 0.254249 h 3.301609 v -0.152445 c 0,-2.0828 -0.601242,-3.716694 -1.803509,-4.902028 -1.185333,-1.202266 -2.87007,-1.803506 -5.054471,-1.803506 z m 61.493403,0 c -0.575734,0 -1.066895,0.18609 -1.473295,0.558623 -0.389467,0.372534 -0.583944,0.863695 -0.583944,1.473295 0,0.6096 0.194477,1.100762 0.583944,1.473296 0.4064,0.37253 0.897561,0.55862 1.473295,0.55862 0.592666,0 1.083828,-0.18609 1.473295,-0.55862 0.389467,-0.372534 0.583943,-0.863696 0.583943,-1.473296 0,-0.6096 -0.194476,-1.100761 -0.583943,-1.473295 -0.389467,-0.372533 -0.880629,-0.558623 -1.473295,-0.558623 z m -51.790637,0.355534 v 17.779798 h 3.200321 v -6.400648 c 3e-6,-1.1684 0.271005,-2.074196 0.812871,-2.717662 0.541867,-0.6604 1.304034,-0.990638 2.286167,-0.990638 0.8636,0 1.524074,0.236935 1.981274,0.711068 0.474133,0.474134 0.711068,1.185453 0.711068,2.133719 v 7.264161 h 3.20032 v -7.518409 c 0,-1.049867 -0.202864,-1.964053 -0.609264,-2.742986 -0.4064,-0.795867 -0.982477,-1.413883 -1.727543,-1.85415 -0.728134,-0.4572 -1.583085,-0.685747 -2.565218,-0.685747 -0.745067,0 -1.363086,0.09331 -1.854152,0.279569 -0.474134,0.169334 -0.855216,0.388978 -1.143082,0.659911 -0.287867,0.270933 -0.499637,0.541935 -0.635103,0.812869 h -0.457338 v -6.730855 z m 32.359783,1.270207 v 3.911388 h -3.14968 v 2.6417 h 3.14968 v 7.111709 c 0,0.8636 0.253711,1.558145 0.761711,2.083078 0.524933,0.507996 1.202701,0.761716 2.032434,0.761716 h 3.555854 V 87.55127 h -2.438611 c -0.474133,0 -0.711068,-0.254228 -0.711068,-0.762228 v -6.553089 h 2.692342 2.387452 v 7.111709 c 0,0.8636 0.254227,1.558145 0.762227,2.083078 0.524934,0.507996 1.202185,0.761716 2.031918,0.761716 h 3.555855 V 87.55127 h -2.438093 c -0.474134,0 -0.711068,-0.254228 -0.711068,-0.762228 v -6.553089 h 3.454053 v -2.6417 h -3.454053 v -3.911388 h -3.200839 v 3.911388 H 72.675036 69.982694 V 73.682865 Z M 55.30142,77.238719 c -1.083733,0 -2.006306,0.169312 -2.768306,0.507979 -0.745067,0.321733 -1.346308,0.753663 -1.803508,1.29553 -0.440267,0.524933 -0.762114,1.108882 -0.965314,1.752348 l 2.94659,0.990637 c 0.118534,-0.575733 0.372243,-1.041215 0.761709,-1.396815 0.389467,-0.372533 0.982321,-0.559138 1.778185,-0.559138 0.8128,0 1.405655,0.194992 1.778188,0.584459 0.372534,0.372533 0.558623,0.855308 0.558623,1.447975 v 0.711067 h -3.454569 c -0.948267,0 -1.794831,0.152535 -2.539897,0.457335 -0.728133,0.287867 -1.303695,0.727668 -1.727028,1.320335 -0.4064,0.575733 -0.609783,1.295442 -0.60978,2.159042 -3e-6,0.863597 0.20338,1.600599 0.60978,2.210199 0.423333,0.592667 0.990505,1.049764 1.701705,1.371494 0.7112,0.3048 1.515305,0.45734 2.412772,0.45734 0.880533,0 1.575078,-0.12738 2.083078,-0.38138 0.508,-0.254 0.880179,-0.54178 1.117245,-0.86351 0.237067,-0.338667 0.389602,-0.609669 0.457335,-0.812869 h 0.482658 v 0.02532 c 0,0.508 0.203383,0.914762 0.609783,1.219559 0.4064,0.3048 0.922726,0.45683 1.54926,0.45683 h 2.133719 V 87.551269 H 61.39769 c -0.474133,0 -0.711586,-0.254228 -0.711586,-0.762228 v -4.698939 c 0,-1.5748 -0.482256,-2.777281 -1.447456,-3.607014 -0.9652,-0.829733 -2.277761,-1.24437 -3.937228,-1.244369 z m 41.757658,0 c -1.253067,0 -2.353858,0.271005 -3.302124,0.812872 -0.948267,0.524933 -1.684751,1.278194 -2.209684,2.260327 -0.524933,0.9652 -0.787548,2.108446 -0.787548,3.429246 v 0.304893 c 0,1.3208 0.262615,2.47192 0.787548,3.454053 0.541867,0.9652 1.286738,1.718977 2.235004,2.260846 0.9652,0.52493 2.074381,0.78755 3.327448,0.78755 1.151466,0 2.09972,-0.17822 2.84479,-0.53382 0.745068,-0.37254 1.337918,-0.812853 1.778188,-1.320853 0.4572,-0.524933 0.80421,-1.007189 1.04128,-1.447456 l -2.61638,-1.371491 c -0.220128,0.474133 -0.541468,0.905544 -0.964808,1.295011 -0.423328,0.389466 -1.083802,0.584459 -1.981269,0.584459 -0.880533,0 -1.625923,-0.271002 -2.235523,-0.812869 -0.6096,-0.541866 -0.930931,-1.244798 -0.964798,-2.108398 h 9.169468 v -1.091925 c 0,-1.286933 -0.25423,-2.412886 -0.76223,-3.378086 -0.508,-0.982134 -1.21932,-1.7443 -2.13372,-2.286167 -0.914398,-0.5588 -1.989509,-0.838192 -3.225642,-0.838192 z m -12.445751,0.355534 v 12.598203 h 3.20032 V 77.594253 Z m 21.005433,0 v 2.6417 h 6.6549 v 0.406176 l -6.90863,5.740736 v 3.809591 l 12.21975,1.753145 -1.60282,-4.394331 h -7.11171 v -0.406694 l 6.90862,-5.74022 1.60282,-5.563248 z m -8.585003,2.438612 c 0.829734,0 1.498595,0.220157 2.006595,0.660423 0.52493,0.440267 0.82111,1.024216 0.88884,1.752349 H 94.036523 C 94.155056,81.717504 94.468,81.133555 94.976,80.693288 c 0.508,-0.440266 1.194157,-0.660423 2.057757,-0.660423 z m -42.671814,4.927348 h 3.225644 v 0.254246 c 0,0.829734 -0.287782,1.498598 -0.863515,2.006598 -0.5588,0.491066 -1.286897,0.736388 -2.184363,0.736388 -0.677331,0 -1.194176,-0.144148 -1.549776,-0.432014 -0.3556,-0.287867 -0.533299,-0.660046 -0.533299,-1.117246 0,-0.4572 0.169312,-0.813117 0.507978,-1.067117 0.338667,-0.254 0.804664,-0.380855 1.397331,-0.380855 z"
         sodipodi:nodetypes="scsscsssccscscsssscsccscsscscssssscccscscsccsccscscccccccccscsccsscccscsccsscccccccccccscccccscscsccsccsscccsssccssssssccssccsccccsssccsccsccccccccccccccccccscccssscscsssss" />
    </g>
  </g>
</svg>
